# xmcd
#
# Track frame offsets:
# 150
# 16266
# 37145
# 53812
# 72598
# 90750
# 108117
# 127882
# 147932
# 164713
#
# Disc length: 2437 seconds
#
# Revision: 0
# Processed by: cddbd v1.5.2PL0 Copyright (c) Steve Scherf et al.
# Submitted via: MacMP3 Pro 5.0 (http://mp3.act2.co.jp/)
#
DISCID=8209830a
DTITLE=Laurens Van Rooyen - Reverie
DYEAR=1900
DGENRE=
TTITLE0=Just A Simple Love Song
TTITLE1=A Summer Story
TTITLE2=The Village Green
TTITLE3=Imaginary Landscapes
TTITLE4=Good Morning, Midnight
TTITLE5=Reverie
TTITLE6=Song For Mary
TTITLE7=Breif Interlude
TTITLE8=Mother And Son
TTITLE9=Provence
EXTD=
EXTT0=
EXTT1=
EXTT2=
EXTT3=
EXTT4=
EXTT5=
EXTT6=
EXTT7=
EXTT8=
EXTT9=
PLAYORDER=
